<?xml version="1.0" encoding="UTF-8"?>
<svg id="Layer_1" data-name="Layer 1" xmlns="http://www.w3.org/2000/svg" viewBox="0 0 1066 234">
  <defs>
    <style>
      .cls-1 {
        fill: #111723;
      }

      .cls-2 {
        fill: #446ab2;
      }
    </style>
  </defs>
  <g>
    <path class="cls-1" d="M441.1,145.47v25.57s-95.28.02-95.28.02l2.01-3.41,58.41-98.28h-12.91s-47.53,19.3-47.53,19.3v-25.71s95.27-.02,95.27-.02l-2.09,3.55-58.79,98.54h12.93l47.97-19.56Z"/>
    <path class="cls-1" d="M646.57,148.97c-2.11,2.07-4.26,4.05-6.53,5.9-1.13.93-2.29,1.84-3.47,2.71-1.22.83-2.4,1.71-3.66,2.49-4.96,3.25-10.48,5.84-16.28,7.58l-1.1.34-1.12.26-2.25.56c-.75.22-1.52.28-2.28.43l-2.32.43c-2.96.47-6.09.93-9.29,1.15-1.57.13-3.05.2-4.66.2-1.78,0-3.54-.08-5.28-.24-3.62-.29-7.15-1.09-10.42-2.3-3.52-1.2-6.86-3.23-9.94-5.64-1.47-1.29-2.98-2.59-4.2-4.14-.63-.75-1.31-1.49-1.86-2.31-.56-.81-1.09-1.64-1.63-2.47-1.97-3.34-3.45-7.08-4.29-10.98-.44-2.24-.68-4.49-.68-6.86,0-1.55.1-3.08.29-4.58.45-3.73,1.58-7.26,3.05-10.51,1.45-3.27,3.4-6.21,5.49-8.9,2.08-2.64,4.35-5.04,6.88-7.25,2.39-2.13,4.87-4.07,7.52-5.88,2.54-1.73,5.19-3.31,7.93-4.74,2.72-1.34,5.57-2.54,8.46-3.56,2.94-1.06,6.06-1.9,9.2-2.47,1.63-.36,3.27-.46,4.99-.68,1.69-.03,3.41-.19,5.23-.01,3.61.26,7.4,1.16,10.89,2.99,3.61,1.85,6.67,4.5,9.02,7.78,4.73,6.6,6.45,15.42,4.21,23.65-1.15,4.2-3.11,8.34-6.08,11.36-2.97,3.05-7.04,5.92-10.68,7.04-3.64,1.12-7.3,1.39-10.57,1.22-1.61-.04-3.19-.24-4.75-.37-1.55-.22-3.09-.41-4.61-.68-8.74-1.46-16.25-3.12-24.05-6.32.39,2.04.29,1.71.82,3.49,1.32,4.51,3.84,8.74,7.28,11.96,5.39,5.03,14.55,7.32,21.65,8.39,1.74.26,3.46.4,5.27.4.95,0,1.9-.04,2.84-.11,10.91-.8,21.88-6.21,29.36-14.68l1.63,5.37ZM576.36,121.74c.02,1.25-.03,2.44.06,3.62.08,1.27.18,2.5.32,3.68,2.79.96,5.73,1.76,8.67,2.34,2.73.54,5.54.89,8.39,1.05,1.11.08,2.14.12,3.27.12,1.71,0,3.4-.09,5.06-.28,2.72-.27,5.39-.86,7.9-1.72,2.44-.86,4.45-1.98,6-3.39,1.36-1.21,2.43-2.73,3.1-4.46.5-1.43.79-2.98.82-4.58,0-1.63-.2-3.21-.55-4.74-.39-1.61-1.01-3.16-1.68-4.75-.71-1.72-1.58-3.37-2.57-4.92-1.11-1.65-2.51-3.41-4.4-4.88-3.83-3.08-9.36-4.9-14.69-3.91-2.66.45-5.2,1.52-7.5,2.97-2.29,1.5-4.29,3.33-5.99,5.46-3.37,4.27-5.23,9.55-5.87,14.62-.21,1.26-.25,2.53-.33,3.76Z"/>
    <path class="cls-1" d="M545.38,148.97c-2.11,2.07-4.26,4.05-6.53,5.9-1.13.93-2.29,1.84-3.47,2.71-1.22.83-2.4,1.71-3.66,2.49-4.96,3.25-10.48,5.84-16.28,7.58l-1.1.34-1.12.26-2.25.56c-.75.22-1.52.28-2.28.43l-2.32.43c-2.96.47-6.09.93-9.29,1.15-1.57.13-3.05.2-4.66.2-1.78,0-3.54-.08-5.28-.24-3.62-.29-7.15-1.09-10.42-2.3-3.52-1.2-6.86-3.23-9.94-5.64-1.47-1.29-2.98-2.59-4.2-4.14-.63-.75-1.31-1.49-1.86-2.31-.56-.81-1.09-1.64-1.63-2.47-1.97-3.34-3.45-7.08-4.29-10.98-.44-2.24-.68-4.49-.68-6.86,0-1.55.1-3.08.29-4.58.45-3.73,1.58-7.26,3.05-10.51,1.45-3.27,3.4-6.21,5.49-8.9,2.08-2.64,4.35-5.04,6.88-7.25,2.39-2.13,4.87-4.07,7.52-5.88,2.54-1.73,5.19-3.31,7.93-4.74,2.72-1.34,5.57-2.54,8.46-3.56,2.94-1.06,6.06-1.9,9.2-2.47,1.63-.36,3.27-.46,4.99-.68,1.69-.03,3.41-.19,5.23-.01,3.61.26,7.4,1.16,10.89,2.99,3.61,1.85,6.67,4.5,9.02,7.78,4.73,6.6,6.45,15.42,4.21,23.65-1.15,4.2-3.11,8.34-6.08,11.36-2.97,3.05-7.04,5.92-10.68,7.04-3.64,1.12-7.3,1.39-10.57,1.22-1.61-.04-3.19-.24-4.75-.37-1.55-.22-3.09-.41-4.61-.68-8.74-1.46-16.25-3.12-24.05-6.32.39,2.04.29,1.71.82,3.49,1.32,4.51,3.84,8.74,7.28,11.96,5.39,5.03,14.55,7.32,21.65,8.39,1.74.26,3.46.4,5.27.4.95,0,1.9-.04,2.84-.11,10.91-.8,21.88-6.21,29.36-14.68l1.63,5.37ZM475.18,121.74c.02,1.25-.03,2.44.06,3.62.08,1.27.18,2.5.32,3.68,2.79.96,5.73,1.76,8.67,2.34,2.73.54,5.54.89,8.39,1.05,1.11.08,2.14.12,3.27.12,1.71,0,3.4-.09,5.06-.28,2.72-.27,5.39-.86,7.9-1.72,2.44-.86,4.45-1.98,6-3.39,1.36-1.21,2.43-2.73,3.1-4.46.5-1.43.79-2.98.82-4.58,0-1.63-.2-3.21-.55-4.74-.39-1.61-1.01-3.16-1.68-4.75-.71-1.72-1.58-3.37-2.57-4.92-1.11-1.65-2.51-3.41-4.4-4.88-3.83-3.08-9.36-4.9-14.69-3.91-2.66.45-5.2,1.52-7.5,2.97-2.29,1.5-4.29,3.33-5.99,5.46-3.37,4.27-5.23,9.55-5.87,14.62-.21,1.26-.25,2.53-.33,3.76Z"/>
    <path class="cls-1" d="M722.89,129.39c-.06-.66-.12-1.3-.13-1.98-.01-.69-.14-1.31-.19-1.97-.27-2.59-.66-5.11-1.3-7.51-.17-.59-.41-1.14-.54-1.76-.14-.62-.45-1.12-.63-1.72-.19-.6-.5-1.15-.79-1.71-.3-.56-.53-1.19-.94-1.71l-1.11-1.69-1.32-1.6c-.42-.57-.97-1-1.47-1.52l-.77-.76c-.27-.26-.57-.44-.85-.67-4.52-3.78-10.64-5.89-16.91-6.32l-2.39-.12-2.38.13c-.81.04-1.61.14-2.39.28-.79.16-1.62.2-2.39.43l-2.36.62c-.78.22-1.52.57-2.3.85l-1.15.45c-.39.16-.73.37-1.11.55l-.06.03c.01,18.6.03,33.17.04,51.76v17.52h-21.37v-83.56h21.31c.01,2.32.01,4.65.01,6.97,1.76-1.21,3.64-2.27,5.61-3.17.81-.44,1.68-.68,2.53-1.04.84-.34,1.73-.64,2.62-.87l2.67-.74,2.73-.51c3.67-.55,7.48-.74,11.29-.32.47.05.97.06,1.44.14l1.42.23c.95.18,1.93.25,2.87.5l2.89.68c.95.26,1.88.6,2.85.92,3.76,1.37,7.6,3.11,11.02,5.77,3.51,2.73,6.45,6.04,8.78,9.85,3.63,5.92,5.7,12.82,6.05,19.81.02.26.03.5.03.5,0,.15.01,30.83.01,44.91h-21.34c0-14.19-.02-41.33,0-41.66Z"/>
    <path class="cls-2" d="M755.62,171.05v-97.42c0-.21.01-.43.02-.63.32-5.6,4.97-10.04,10.65-10.04s10.11,4.24,10.62,9.65v2.01c-.51,5.42-5.08,9.66-10.62,9.66s-10.32-4.43-10.65-10.02c.27,12.99,9.23,23.84,21.29,26.99.02,23.26.04,46.53.05,69.8h-21.36Z"/>
    <path class="cls-2" d="M788.41,171.05v-97.42c0-.21.01-.43.02-.63.32-5.6,4.97-10.04,10.65-10.04s10.11,4.24,10.62,9.65v2.01c-.51,5.42-5.08,9.66-10.62,9.66s-10.32-4.43-10.65-10.02c.27,12.99,9.23,23.84,21.29,26.99.02,23.26.04,46.53.05,69.8h-21.36Z"/>
    <path class="cls-1" d="M862.05,62.96v24.5h20.66v7.28l-13.61-3.76h-7.05v48.16c0,17.22,2.01,28.36,11.82,28.36,6.13,0,11.38-4.12,17.02-13.7,1.35,3.85,2.69,7.7,4.03,11.54-4.82,2.67-12.77,5.71-22.58,5.71-19.59,0-31.56-11.66-31.56-32.75v-47.32h-7.12l-13.61,3.76v-7.28h20.73v-13.18c.12,0,.25,0,.36,0"/>
    <path class="cls-1" d="M971.78,129.73c-.06-.66-.12-1.3-.13-1.98,0-.68-.14-1.31-.19-1.97-.28-2.58-.66-5.11-1.3-7.5-.16-.59-.41-1.14-.54-1.76-.14-.62-.43-1.11-.63-1.72-.21-.59-.48-1.17-.79-1.7-.3-.56-.53-1.18-.93-1.71l-1.12-1.69-1.31-1.59c-.42-.57-.97-1.01-1.48-1.52l-.77-.76c-.27-.26-.57-.45-.85-.67-4.51-3.77-10.62-5.88-16.89-6.31l-2.39-.12-2.38.13c-.81.04-1.61.14-2.39.28-.79.16-1.61.2-2.38.43l-2.35.62c-.79.22-1.52.57-2.3.85l-1.15.45c-.38.16-.73.37-1.1.55l-.05.03c.01,18.57.03,32.85.04,51.41v17.5h-21.33V62.95h21.26s.03,31.55.03,31.55c1.76-1.21,3.63-2.27,5.6-3.16.81-.44,1.68-.68,2.52-1.03.84-.34,1.72-.64,2.61-.87l2.67-.74,2.73-.51c3.67-.55,7.47-.74,11.28-.31.47.05.97.06,1.44.14l1.42.23c.95.18,1.93.25,2.87.5l2.89.68c.95.26,1.88.6,2.85.92,3.76,1.37,7.59,3.11,11.01,5.75,3.5,2.73,6.44,6.03,8.76,9.83,3.63,5.92,5.69,12.8,6.04,19.78.02.26.03.5.03.5,0,.15.01,30.79.01,44.84h-21.31c-.01-14.17-.02-41-.01-41.32Z"/>
  </g>
  <path class="cls-2" d="M84.49,14.41h201.22c6.58,0,10.26,7.59,6.19,12.76l-99.99,126.82c-1.56,1.98.91,4.59,2.97,3.14l78.66-55.39c5.22-3.68,12.42.06,12.42,6.44v103.53c0,4.35-3.53,7.88-7.88,7.88H80.79c-6.54,0-10.24-7.51-6.24-12.69l73.17-94.99,27.65,14.55,11.64-62.57-65.48,11.64,18.92,24.74-47.39,47.39c-4.9,4.9-13.28,1.55-13.45-5.38l-2.98-119.79c-.11-4.43,3.45-8.08,7.88-8.08Z"/>
</svg>